<svg width="16" height="16" viewBox="0 0 16 16" fill="none" xmlns="http://www.w3.org/2000/svg">
<g id="Icons/chevron-down">
<path id="Vector" d="M12.6167 6.00016C12.6167 6.20016 12.55 6.3335 12.4167 6.46683L8.41671 10.4668C8.28337 10.5335 8.15004 10.6668 7.95004 10.6668C7.75004 10.6668 7.61671 10.6002 7.48337 10.4668L3.48337 6.46683C3.28337 6.20016 3.28337 5.80016 3.48337 5.5335C3.68337 5.26683 4.15004 5.26683 4.35004 5.5335L7.88337 9.06683L11.4167 5.5335C11.6167 5.46683 11.8167 5.3335 11.95 5.3335C12.0834 5.3335 12.2834 5.40016 12.4167 5.5335C12.55 5.66683 12.6167 5.86683 12.6167 6.00016Z" fill="#78708F"/>
</g>
</svg>
